<svg id="visual" viewBox="0 0 960 540" width="960" height="540" xmlns="http://www.w3.org/2000/svg" xmlns:xlink="http://www.w3.org/1999/xlink" version="1.1"><g stroke-width="1" stroke-linejoin="bevel"><path d="M505.3 233L554.3 175L440.7 160Z" fill="#297ea6" stroke="#297ea6"></path><path d="M554.3 175L457.7 98L440.7 160Z" fill="#4e92b4" stroke="#4e92b4"></path><path d="M554.3 175L562.3 97L457.7 98Z" fill="#1f5c7a" stroke="#1f5c7a"></path><path d="M338 188L405.7 234L440.7 160Z" fill="#438bb0" stroke="#438bb0"></path><path d="M440.7 160L405.7 234L505.3 233Z" fill="#23698b" stroke="#23698b"></path><path d="M554.3 175L605 113L562.3 97Z" fill="#257094" stroke="#257094"></path><path d="M505.3 233L650 214L554.3 175Z" fill="#639fbe" stroke="#639fbe"></path><path d="M554.3 175L650 214L605 113Z" fill="#297ea6" stroke="#297ea6"></path><path d="M317 95L338 188L440.7 160Z" fill="#1f5c7a" stroke="#1f5c7a"></path><path d="M602 0L515.3 0L562.3 97Z" fill="#3785ab" stroke="#3785ab"></path><path d="M562.3 97L515.3 0L457.7 98Z" fill="#297ea6" stroke="#297ea6"></path><path d="M457.7 98L317 95L440.7 160Z" fill="#297ea6" stroke="#297ea6"></path><path d="M515.3 0L464.7 0L457.7 98Z" fill="#27779d" stroke="#27779d"></path><path d="M351 289L444.7 349L405.7 234Z" fill="#1f5c7a" stroke="#1f5c7a"></path><path d="M405.7 234L444.7 349L505.3 233Z" fill="#216383" stroke="#216383"></path><path d="M505.3 233L665 300L650 214Z" fill="#639fbe" stroke="#639fbe"></path><path d="M338 188L351 289L405.7 234Z" fill="#5998b9" stroke="#5998b9"></path><path d="M464.7 0L317 95L457.7 98Z" fill="#297ea6" stroke="#297ea6"></path><path d="M205.3 213L291 330L351 289Z" fill="#1f5c7a" stroke="#1f5c7a"></path><path d="M444.7 349L520.3 376L505.3 233Z" fill="#1f5c7a" stroke="#1f5c7a"></path><path d="M728.7 124L602 0L605 113Z" fill="#216383" stroke="#216383"></path><path d="M605 113L602 0L562.3 97Z" fill="#23698b" stroke="#23698b"></path><path d="M604 370L665 300L505.3 233Z" fill="#216383" stroke="#216383"></path><path d="M520.3 376L604 370L505.3 233Z" fill="#257094" stroke="#257094"></path><path d="M736.7 198L728.7 124L650 214Z" fill="#23698b" stroke="#23698b"></path><path d="M650 214L728.7 124L605 113Z" fill="#216383" stroke="#216383"></path><path d="M665 300L736.7 198L650 214Z" fill="#27779d" stroke="#27779d"></path><path d="M205.3 213L351 289L338 188Z" fill="#257094" stroke="#257094"></path><path d="M351 289L357 432L444.7 349Z" fill="#1f5c7a" stroke="#1f5c7a"></path><path d="M444.7 349L408.7 452L520.3 376Z" fill="#23698b" stroke="#23698b"></path><path d="M464.7 0L286 0L317 95Z" fill="#5998b9" stroke="#5998b9"></path><path d="M317 95L205.3 213L338 188Z" fill="#639fbe" stroke="#639fbe"></path><path d="M665 300L769.7 248L736.7 198Z" fill="#3785ab" stroke="#3785ab"></path><path d="M736.7 198L858.3 184L728.7 124Z" fill="#1f5c7a" stroke="#1f5c7a"></path><path d="M737.7 329L769.7 248L665 300Z" fill="#639fbe" stroke="#639fbe"></path><path d="M604 370L737.7 329L665 300Z" fill="#216383" stroke="#216383"></path><path d="M357 432L408.7 452L444.7 349Z" fill="#23698b" stroke="#23698b"></path><path d="M520.3 376L624 444L604 370Z" fill="#27779d" stroke="#27779d"></path><path d="M604 370L624 444L737.7 329Z" fill="#257094" stroke="#257094"></path><path d="M291 330L357 432L351 289Z" fill="#639fbe" stroke="#639fbe"></path><path d="M202.3 63L205.3 213L317 95Z" fill="#1f5c7a" stroke="#1f5c7a"></path><path d="M291 330L239.3 332L357 432Z" fill="#27779d" stroke="#27779d"></path><path d="M559.3 488L624 444L520.3 376Z" fill="#5998b9" stroke="#5998b9"></path><path d="M205.3 213L239.3 332L291 330Z" fill="#4e92b4" stroke="#4e92b4"></path><path d="M286 0L202.3 63L317 95Z" fill="#438bb0" stroke="#438bb0"></path><path d="M408.7 452L559.3 488L520.3 376Z" fill="#216383" stroke="#216383"></path><path d="M77.7 272L185.3 280L205.3 213Z" fill="#23698b" stroke="#23698b"></path><path d="M205.3 213L185.3 280L239.3 332Z" fill="#639fbe" stroke="#639fbe"></path><path d="M728.7 124L774.7 0L602 0Z" fill="#438bb0" stroke="#438bb0"></path><path d="M859.3 100L774.7 0L728.7 124Z" fill="#4e92b4" stroke="#4e92b4"></path><path d="M286 0L195.3 0L202.3 63Z" fill="#257094" stroke="#257094"></path><path d="M202.3 63L119.7 145L205.3 213Z" fill="#5998b9" stroke="#5998b9"></path><path d="M868.3 250L858.3 184L769.7 248Z" fill="#4e92b4" stroke="#4e92b4"></path><path d="M769.7 248L858.3 184L736.7 198Z" fill="#1f5c7a" stroke="#1f5c7a"></path><path d="M408.7 452L522.3 540L559.3 488Z" fill="#639fbe" stroke="#639fbe"></path><path d="M559.3 488L647 540L624 444Z" fill="#23698b" stroke="#23698b"></path><path d="M425.7 540L522.3 540L408.7 452Z" fill="#5998b9" stroke="#5998b9"></path><path d="M858.3 184L859.3 100L728.7 124Z" fill="#297ea6" stroke="#297ea6"></path><path d="M304 540L408.7 452L357 432Z" fill="#639fbe" stroke="#639fbe"></path><path d="M304 540L425.7 540L408.7 452Z" fill="#639fbe" stroke="#639fbe"></path><path d="M304 540L357 432L184.3 486Z" fill="#1f5c7a" stroke="#1f5c7a"></path><path d="M859.3 100L827.3 0L774.7 0Z" fill="#639fbe" stroke="#639fbe"></path><path d="M100.7 60L119.7 145L202.3 63Z" fill="#3785ab" stroke="#3785ab"></path><path d="M858.3 184L960 143L859.3 100Z" fill="#5998b9" stroke="#5998b9"></path><path d="M737.7 329L868.3 250L769.7 248Z" fill="#3785ab" stroke="#3785ab"></path><path d="M879.3 397L868.3 250L737.7 329Z" fill="#257094" stroke="#257094"></path><path d="M783.7 429L737.7 329L624 444Z" fill="#4e92b4" stroke="#4e92b4"></path><path d="M716.7 540L783.7 429L624 444Z" fill="#297ea6" stroke="#297ea6"></path><path d="M522.3 540L647 540L559.3 488Z" fill="#3785ab" stroke="#3785ab"></path><path d="M195.3 0L138.7 0L202.3 63Z" fill="#5998b9" stroke="#5998b9"></path><path d="M184.3 486L357 432L239.3 332Z" fill="#4e92b4" stroke="#4e92b4"></path><path d="M110.7 325L239.3 332L185.3 280Z" fill="#27779d" stroke="#27779d"></path><path d="M138.7 0L100.7 60L202.3 63Z" fill="#216383" stroke="#216383"></path><path d="M77.7 272L205.3 213L119.7 145Z" fill="#5998b9" stroke="#5998b9"></path><path d="M77.7 272L110.7 325L185.3 280Z" fill="#216383" stroke="#216383"></path><path d="M647 540L716.7 540L624 444Z" fill="#216383" stroke="#216383"></path><path d="M0 197L77.7 272L119.7 145Z" fill="#3785ab" stroke="#3785ab"></path><path d="M834.3 540L830.3 453L783.7 429Z" fill="#438bb0" stroke="#438bb0"></path><path d="M783.7 429L879.3 397L737.7 329Z" fill="#297ea6" stroke="#297ea6"></path><path d="M125.7 433L184.3 486L239.3 332Z" fill="#216383" stroke="#216383"></path><path d="M125.7 433L239.3 332L110.7 325Z" fill="#438bb0" stroke="#438bb0"></path><path d="M830.3 453L879.3 397L783.7 429Z" fill="#639fbe" stroke="#639fbe"></path><path d="M960 258L960 143L858.3 184Z" fill="#5998b9" stroke="#5998b9"></path><path d="M0 360L125.7 433L110.7 325Z" fill="#3785ab" stroke="#3785ab"></path><path d="M960 258L858.3 184L868.3 250Z" fill="#5998b9" stroke="#5998b9"></path><path d="M859.3 100L960 61L827.3 0Z" fill="#3785ab" stroke="#3785ab"></path><path d="M99.7 540L207.3 540L184.3 486Z" fill="#297ea6" stroke="#297ea6"></path><path d="M184.3 486L207.3 540L304 540Z" fill="#27779d" stroke="#27779d"></path><path d="M879.3 397L960 258L868.3 250Z" fill="#3785ab" stroke="#3785ab"></path><path d="M960 143L960 61L859.3 100Z" fill="#216383" stroke="#216383"></path><path d="M960 61L960 0L827.3 0Z" fill="#5998b9" stroke="#5998b9"></path><path d="M830.3 453L960 435L879.3 397Z" fill="#639fbe" stroke="#639fbe"></path><path d="M879.3 397L960 384L960 258Z" fill="#5998b9" stroke="#5998b9"></path><path d="M716.7 540L834.3 540L783.7 429Z" fill="#297ea6" stroke="#297ea6"></path><path d="M77.7 272L0 296L110.7 325Z" fill="#5998b9" stroke="#5998b9"></path><path d="M0 69L0 197L119.7 145Z" fill="#3785ab" stroke="#3785ab"></path><path d="M0 69L119.7 145L100.7 60Z" fill="#23698b" stroke="#23698b"></path><path d="M0 0L0 69L100.7 60Z" fill="#1f5c7a" stroke="#1f5c7a"></path><path d="M960 435L960 384L879.3 397Z" fill="#27779d" stroke="#27779d"></path><path d="M0 197L0 296L77.7 272Z" fill="#639fbe" stroke="#639fbe"></path><path d="M125.7 433L99.7 540L184.3 486Z" fill="#639fbe" stroke="#639fbe"></path><path d="M138.7 0L0 0L100.7 60Z" fill="#4e92b4" stroke="#4e92b4"></path><path d="M0 296L0 360L110.7 325Z" fill="#297ea6" stroke="#297ea6"></path><path d="M960 540L960 435L830.3 453Z" fill="#257094" stroke="#257094"></path><path d="M0 441L99.7 540L125.7 433Z" fill="#216383" stroke="#216383"></path><path d="M0 360L0 441L125.7 433Z" fill="#3785ab" stroke="#3785ab"></path><path d="M834.3 540L960 540L830.3 453Z" fill="#438bb0" stroke="#438bb0"></path><path d="M0 441L0 540L99.7 540Z" fill="#4e92b4" stroke="#4e92b4"></path></g></svg>